<svg width="20" height="13" viewBox="0 0 20 13" fill="none" xmlns="http://www.w3.org/2000/svg">
<path d="M1.68246 1.65644C2.85874 1.65644 3.95145 1.65644 5.08755 1.65644C5.08755 1.07652 5.08755 0.567736 5.08755 0.000188828C3.41152 0.000188828 1.72585 0.000188828 0 0.000188828C0 1.6085 0 3.2168 0 4.86841C0.536716 4.86841 1.0654 4.86841 1.68246 4.86841C1.68246 3.81682 1.68246 2.77142 1.68246 1.65644Z" fill="black"/>
<path d="M1.73567 11.3811C1.73567 10.2491 1.73567 9.19753 1.73567 8.10419C1.13307 8.10419 0.604393 8.10419 0.0146484 8.10419C0.0146484 9.71713 0.0146484 11.3394 0.0146484 13.0002C1.68586 13.0002 3.35707 13.0002 5.07328 13.0002C5.07328 12.4837 5.07328 11.9749 5.07328 11.3811C3.98056 11.3811 2.89427 11.3811 1.73567 11.3811Z" fill="black"/>
<path d="M18.3172 11.344C17.1409 11.344 16.0482 11.344 14.9121 11.344C14.9121 11.9239 14.9121 12.4327 14.9121 13.0002C16.5881 13.0002 18.2738 13.0002 19.9997 13.0002C19.9997 11.3919 19.9997 9.78363 19.9997 8.13202C19.4629 8.13202 18.9343 8.13202 18.3172 8.13202C18.3172 9.18361 18.3172 10.229 18.3172 11.344Z" fill="black"/>
<path d="M18.2644 1.61932C18.2644 2.75132 18.2644 3.8029 18.2644 4.89624C18.867 4.89624 19.3956 4.89624 19.9854 4.89624C19.9854 3.2833 19.9854 1.66107 19.9854 0.000186443C18.3142 0.000186443 16.643 0.000186443 14.9268 0.000186443C14.9268 0.5167 14.9268 1.02548 14.9268 1.61932C16.0195 1.61932 17.1058 1.61932 18.2644 1.61932Z" fill="black"/>
</svg>
