<svg width="61" height="28" viewBox="0 0 61 28" fill="none" xmlns="http://www.w3.org/2000/svg">
<path d="M0.00104627 14.1143C0.0721926 18.9441 1.54255 23.3095 4.57813 27.1409C4.93386 27.582 5.66904 27.9768 6.21449 28C7.4477 28 7.92201 26.5836 7.18683 25.4922C6.42793 24.3544 5.55046 23.2631 5.00501 22.0324C2.04057 15.5771 2.5386 9.33087 6.54651 3.40969C6.71252 3.17749 6.87853 2.94529 7.04454 2.7363C7.77971 1.76105 7.756 0.855458 6.97339 0.298171C6.21449 -0.259116 5.28959 -0.0269133 4.5307 0.925119C3.03663 2.82918 1.89828 4.91901 1.13939 7.21782C0.356779 9.42375 -0.0226692 11.7458 0.00104627 14.1143Z" fill="#676E78"/>
<path d="M6.16677 14.2537C6.2142 17.3884 7.1391 20.2445 8.94148 22.822C9.72409 23.9366 11.147 23.983 11.7399 22.9149C12.1668 22.1718 11.8348 21.5681 11.4316 20.9411C8.91777 17.0633 8.60947 12.9998 10.4593 8.79692C10.7676 8.12353 11.1945 7.49658 11.5976 6.86963C12.2142 5.89438 12.1194 5.01201 11.3367 4.50116C10.5541 3.99031 9.62923 4.24574 8.98891 5.17455C7.04424 7.89132 6.11934 10.9332 6.16677 14.2537Z" fill="#676E78"/>
<path d="M60.999 14.1143C60.9278 18.9441 59.4574 23.3095 56.4219 27.1409C56.0661 27.582 55.331 27.9768 54.7855 28C53.5523 28 53.078 26.5836 53.8132 25.4922C54.5721 24.3544 55.4495 23.2631 55.995 22.0324C58.9594 15.5771 58.4614 9.33087 54.4535 3.40969C54.2875 3.17749 54.1215 2.94529 53.9555 2.7363C53.2203 1.76105 53.244 0.855458 54.0266 0.298171C54.7855 -0.259116 55.7104 -0.0269133 56.4693 0.925119C57.9634 2.82918 59.1017 4.91901 59.8606 7.21782C60.6432 9.42375 61.0227 11.7458 60.999 14.1143Z" fill="#676E78"/>
<path d="M54.8332 14.2537C54.7858 17.3884 53.8609 20.2445 52.0585 22.822C51.2759 23.9366 49.853 23.983 49.2601 22.9149C48.8332 22.1718 49.1652 21.5681 49.5684 20.9411C52.0822 17.0633 52.3905 12.9998 50.5407 8.79692C50.2324 8.12353 49.8055 7.49658 49.4024 6.86963C48.7858 5.89438 48.8806 5.01201 49.6633 4.50116C50.4459 3.99031 51.3708 4.24574 52.0111 5.17455C53.9558 7.89132 54.8807 10.9332 54.8332 14.2537Z" fill="#676E78"/>
<path d="M30.5 26C37.4036 26 43 20.4036 43 13.5C43 6.59644 37.4036 1 30.5 1C23.5964 1 18 6.59644 18 13.5C18 20.4036 23.5964 26 30.5 26Z" fill="#676E78"/>
<path d="M26 19.0023V7.96137C26 7.17434 26.8619 6.67964 27.5249 7.0844L36.5193 12.6161C37.1602 13.0208 37.1602 13.9653 36.5193 14.37L27.5249 19.8792C26.8619 20.284 26 19.7893 26 19.0023Z" fill="white"/>
</svg>
