<svg width="15" height="16" viewBox="0 0 15 16" fill="none" xmlns="http://www.w3.org/2000/svg">
<path d="M14.6427 11.2878C13.9363 10.911 13.2196 10.5252 12.5265 10.1522L12.086 9.91514C12.0689 9.90602 12.0518 9.89642 12.0342 9.88586C12.0518 9.87578 12.0684 9.86618 12.0855 9.85706C12.4553 9.65836 12.8251 9.45966 13.1949 9.26144C13.6829 8.99938 14.1713 8.73733 14.6593 8.47479C15.0258 8.27753 15.0315 8.04908 14.9716 7.89213C14.918 7.7515 14.7932 7.6104 14.6527 7.53264C14.0123 7.17892 13.3572 6.82807 12.7235 6.48874C12.5094 6.37403 12.2953 6.25933 12.0812 6.14414C12.0656 6.1355 12.0494 6.12686 12.0338 6.11774C12.0513 6.10814 12.0684 6.09902 12.0855 6.0899L12.6219 5.80193C13.2955 5.44004 13.9686 5.07816 14.6427 4.71771C14.8259 4.6198 14.9954 4.49309 14.994 4.23104C14.9925 3.93683 14.7628 3.81396 14.6394 3.74772L14.2088 3.51687C12.1197 2.39713 9.95935 1.239 7.83794 0.094311C7.60486 -0.031437 7.39695 -0.031437 7.16435 0.094311C5.06145 1.22796 2.922 2.37505 0.852811 3.48423L0.361503 3.74724C0.238082 3.81348 0.00833001 3.93635 0.00690592 4.23056C0.00548184 4.49309 0.174948 4.6198 0.35818 4.71723C0.821482 4.96393 1.28431 5.21254 1.74666 5.46116L1.94651 5.56819C2.20711 5.70834 2.46772 5.84848 2.73592 5.99295L2.9671 6.11774C2.95096 6.12686 2.9353 6.1355 2.91963 6.14366L2.48386 6.37787C1.77657 6.75752 1.06975 7.13716 0.361977 7.51537C0.238557 7.5816 0.00833001 7.70447 0.00738062 7.99868C0.00643123 8.26169 0.175422 8.38792 0.35818 8.48487C0.849963 8.74693 1.34934 9.01522 1.83163 9.27536L2.26313 9.50766C2.44826 9.60701 2.63292 9.70684 2.82469 9.81099L2.9652 9.88682C2.94764 9.8969 2.93102 9.9065 2.91393 9.91562C2.547 10.1129 2.18006 10.3097 1.81312 10.5069C1.32228 10.7704 0.830975 11.0339 0.340141 11.2979C-0.0263227 11.4951 -0.0315443 11.7241 0.0287419 11.8815C0.0823823 12.0217 0.207702 12.1628 0.348211 12.24C0.850438 12.5175 1.34792 12.7862 1.94034 13.1035L2.28307 13.2873C2.49525 13.401 2.70744 13.5143 2.91916 13.6285L4.31476 14.3821L4.32283 14.3864C5.17918 14.8414 6.17319 15.3713 7.13729 15.8982C7.26166 15.9664 7.37938 16 7.49758 16C7.61721 16 7.7373 15.965 7.865 15.8954C8.86518 15.3482 9.85159 14.8232 10.7682 14.3374L12.0784 13.6281L12.4871 13.4087C13.2029 13.0243 13.9193 12.6398 14.636 12.2568C14.7599 12.1906 14.9902 12.0677 14.9911 11.774C14.9935 11.5115 14.825 11.3852 14.6427 11.2878ZM3.05634 8.76757C3.05207 8.20794 3.05255 7.70783 3.05682 7.23939C3.05729 7.20915 3.07201 7.1698 3.07818 7.16308C3.2035 7.08629 3.33499 7.01717 3.4736 6.94374C3.48024 6.94038 3.48689 6.93654 3.49354 6.93318V9.07042C3.48784 9.06754 3.48167 9.06418 3.47597 9.0613C3.33404 8.98691 3.1997 8.91635 3.07011 8.83908C3.06394 8.82612 3.05634 8.7954 3.05634 8.76757ZM9.13291 10.2017C9.13433 10.326 9.10537 10.3745 9.00379 10.4172C8.90031 10.4608 8.80347 10.5151 8.70093 10.5722C8.69619 10.5751 8.69144 10.5775 8.68669 10.5804C8.68622 10.5717 8.68622 10.5631 8.68622 10.5544C8.68622 10.3025 8.68622 10.0505 8.68622 9.79899C8.68622 9.21872 8.68669 8.6183 8.6829 8.02796C8.68242 7.92141 8.70426 7.89357 8.77166 7.86381C8.88037 7.81534 8.98195 7.75966 9.10015 7.69583C9.11012 7.69055 9.11961 7.68527 9.13006 7.67951V7.7899C9.13006 7.9982 9.12958 8.2065 9.12958 8.41528C9.12768 9.00082 9.12673 9.60605 9.13291 10.2017ZM10.5432 9.45486C10.5446 9.57101 10.5185 9.61421 10.4227 9.65548C10.3163 9.70108 10.2162 9.75675 10.1098 9.81579C10.1041 9.81867 10.0989 9.82203 10.0932 9.82491C10.0927 9.81339 10.0923 9.80235 10.0923 9.79083C10.0923 9.54893 10.0923 9.30704 10.0923 9.06466C10.0927 8.47479 10.0932 7.86525 10.0885 7.26531C10.0875 7.17316 10.1075 7.14052 10.1834 7.10548C10.2921 7.05557 10.3942 6.99989 10.5119 6.93558C10.5209 6.93078 10.5299 6.92598 10.5389 6.9207V7.00469C10.5389 7.21395 10.5385 7.42321 10.5385 7.63295C10.5375 8.23098 10.5366 8.84772 10.5432 9.45486ZM4.46239 7.19044V6.91974C4.46856 6.9231 4.47473 6.92646 4.4809 6.92982C4.62616 7.00757 4.76334 7.08101 4.89531 7.15732C4.90006 7.165 4.9048 7.17988 4.9048 7.18756C4.9048 8.06635 4.90195 8.96003 4.89863 9.82491C4.89151 9.82107 4.88439 9.81723 4.87727 9.81339C4.74531 9.74331 4.60907 9.67084 4.47948 9.59645C4.47378 9.59165 4.46571 9.57677 4.46476 9.57197C4.46239 8.78724 4.46239 8.01164 4.46239 7.19044ZM5.89027 10.3519C5.88267 10.3433 5.87318 10.3193 5.87318 10.3082C5.87081 9.41503 5.87223 8.49639 5.87365 7.67951C5.88362 7.68479 5.89407 7.69007 5.90403 7.69535C6.04075 7.76734 6.17034 7.8355 6.29803 7.90989C6.30373 7.91997 6.31085 7.94301 6.31132 7.9598C6.31322 8.83332 6.31227 9.72124 6.31085 10.5818C6.30278 10.5775 6.29423 10.5732 6.28616 10.5688C6.15515 10.4992 6.01939 10.4272 5.89027 10.3519ZM7.72069 10.9931C7.72069 11.0411 7.69031 11.1001 7.64189 11.1472C7.59585 11.1923 7.54078 11.2192 7.49758 11.2177C7.3998 11.2144 7.27922 11.0949 7.27875 11.0013C7.27828 10.1518 7.27827 9.30224 7.27922 8.4532C7.27922 8.44648 7.27922 8.43928 7.2797 8.4316C7.42733 8.49303 7.57306 8.49207 7.72069 8.42872V9.59117C7.72069 10.0586 7.72069 10.5256 7.72069 10.9931ZM4.10779 10.4959C4.60195 10.7642 5.10607 11.0349 5.59311 11.296C6.10815 11.5719 6.64029 11.8575 7.16245 12.1416C7.396 12.2688 7.60439 12.2684 7.83889 12.1407C8.78638 11.6247 9.79226 11.0857 10.9125 10.4925C10.9633 10.4656 11.0478 10.4628 11.0792 10.4791C11.7537 10.8333 12.4363 11.2009 13.0966 11.5566L13.4953 11.7711L10.0325 13.6295C9.23212 14.0591 8.40425 14.503 7.59157 14.9422C7.518 14.982 7.48287 14.9839 7.42258 14.9513C5.84137 14.0989 4.23216 13.2355 2.67564 12.4003L1.50409 11.7716C1.51359 11.7663 1.52261 11.761 1.5321 11.7562C1.74809 11.6401 1.9636 11.5244 2.17958 11.4088C2.73403 11.1112 3.30793 10.804 3.86997 10.4973C3.96301 10.4464 4.01617 10.446 4.10779 10.4959ZM7.41356 7.41122C5.86226 6.57322 4.28343 5.72514 2.75634 4.90489L1.50504 4.23296C1.51454 4.22768 1.52403 4.2224 1.534 4.21712L2.87596 3.49623C4.37789 2.6899 5.87935 1.8831 7.38081 1.07582C7.47385 1.0259 7.5142 1.0163 7.5854 1.0547C9.11534 1.8807 10.6723 2.71678 12.1785 3.52503L13.4949 4.23152C13.4849 4.2368 13.4749 4.24256 13.465 4.24784L12.0888 4.98697C10.5983 5.78753 9.10822 6.58809 7.61863 7.38962C7.52512 7.44049 7.48524 7.44961 7.41356 7.41122ZM11.9246 7.16404C11.9322 7.1746 11.9426 7.20484 11.9426 7.22787C11.9474 7.79182 11.9469 8.29817 11.9421 8.77525C11.9417 8.79972 11.9227 8.8386 11.9132 8.84676C11.7917 8.92067 11.663 8.98835 11.5268 9.05986C11.5182 9.06418 11.5102 9.0685 11.5016 9.0733V6.93174C11.5073 6.93462 11.5135 6.93798 11.5192 6.94086C11.6607 7.01573 11.795 7.08677 11.9246 7.16404ZM13.4939 7.99964L12.9086 8.31785V7.68719L13.4939 7.99964ZM2.08892 7.68767V8.31593L1.50457 8.00156L2.08892 7.68767Z" fill="#5624D0"/>
</svg>
