<svg width="28" height="28" viewBox="0 0 28 28" fill="none" xmlns="http://www.w3.org/2000/svg">
<g filter="url(#filter0_d)">
<path fill-rule="evenodd" clip-rule="evenodd" d="M15 21C19.9706 21 24 16.9706 24 12C24 7.02944 19.9706 3 15 3C10.0294 3 6 7.02944 6 12C6 16.9706 10.0294 21 15 21Z" fill="white"/>
</g>
<path d="M15 19C18.866 19 22 15.866 22 12C22 8.13401 18.866 5 15 5C11.134 5 8 8.13401 8 12C8 15.866 11.134 19 15 19Z" fill="#58BF80"/>
<path d="M18.4937 8.75844C18.8383 8.41385 19.397 8.41385 19.7416 8.75844C20.0861 9.10302 20.0861 9.66169 19.7416 10.0063L14.4474 15.3004C14.1029 15.645 13.5442 15.645 13.1996 15.3004L10.2584 12.3592C9.91385 12.0146 9.91385 11.456 10.2584 11.1114C10.603 10.7668 11.1617 10.7668 11.5063 11.1114L13.8235 13.4286L18.4937 8.75844Z" fill="white"/>
<defs>
<filter id="filter0_d" x="0" y="0" width="28" height="28" filterUnits="userSpaceOnUse" color-interpolation-filters="sRGB">
<feFlood flood-opacity="0" result="BackgroundImageFix"/>
<feColorMatrix in="SourceAlpha" type="matrix" values="0 0 0 0 0 0 0 0 0 0 0 0 0 0 0 0 0 0 127 0"/>
<feOffset dx="-1" dy="2"/>
<feGaussianBlur stdDeviation="2.5"/>
<feColorMatrix type="matrix" values="0 0 0 0 0 0 0 0 0 0 0 0 0 0 0 0 0 0 0.1 0"/>
<feBlend mode="normal" in2="BackgroundImageFix" result="effect1_dropShadow"/>
<feBlend mode="normal" in="SourceGraphic" in2="effect1_dropShadow" result="shape"/>
</filter>
</defs>
</svg>
