<svg width="18" height="21" viewBox="0 0 18 21" fill="none" xmlns="http://www.w3.org/2000/svg">
<path d="M1.43686 19.5807C1.65873 19.5807 1.8489 19.5807 2.04964 19.5807C4.22606 19.5807 6.34597 19.5807 8.52239 19.5807C8.702 19.5807 8.95556 19.5289 9.06122 19.6221C9.28308 19.8086 9.52608 20.0572 9.58947 20.3162C9.66343 20.6478 9.38874 20.8964 9.04009 20.9793C8.945 21 8.83935 21 8.7337 21C5.90223 21 3.12729 21 0.285259 21C0.200738 21 0.116217 20.9896 0 20.9793C0 12.2768 0 8.76468 0 0C0.158477 0 0.316955 0 0.475432 0C4.74376 0 6.84253 0 11.1109 0.0207203C11.3433 0.0207203 11.6391 0.134682 11.8082 0.300444C13.7627 2.19635 15.6961 4.11298 17.6507 6.00888C17.8937 6.24716 18.0099 6.48545 17.9993 6.82733C17.9782 7.73902 17.9888 7.6147 17.9888 8.51603C17.9888 9.17908 17.7352 9.48989 17.2492 9.47953C16.7843 9.46917 16.5413 9.148 16.5308 8.53675C16.5308 7.67686 16.5308 7.85298 16.5308 6.93093C14.6819 6.93093 12.8541 6.93093 10.9629 6.93093C10.9629 5.07647 10.9629 3.28416 10.9629 1.46078C7.03271 1.46078 5.32484 1.46078 1.4263 1.46078C1.43686 9.22052 1.43686 11.7795 1.43686 19.5807Z" fill="#FF557E"/>
<path fill-rule="evenodd" clip-rule="evenodd" d="M14 21C16.2091 21 18 19.2091 18 17C18 14.7909 16.2091 13 14 13C11.7909 13 10 14.7909 10 17C10 19.2091 11.7909 21 14 21ZM14.2375 15.8935C13.9749 16.1438 13.7071 16.3989 13.4261 16.6641C13.3832 16.6183 13.3427 16.5732 13.3033 16.5293C13.2019 16.4163 13.1075 16.3111 12.9972 16.2209C12.7521 16.0089 12.4253 16.0185 12.1904 16.2305C11.9453 16.4521 11.9351 16.7798 12.17 17.011C12.4457 17.2905 12.7316 17.57 13.0278 17.8301C13.2729 18.0614 13.6099 18.0518 13.855 17.8301C14.529 17.2134 15.1928 16.587 15.8362 15.951C15.9485 15.8354 15.9996 15.6427 15.9996 15.4789C16.0098 15.2572 15.8362 15.103 15.6217 15.0356C15.3868 14.9585 15.1724 15.0067 14.9886 15.1801C14.7382 15.4164 14.4902 15.6527 14.2375 15.8935Z" fill="#FF557E"/>
</svg>
