<svg width="10" height="6" viewBox="0 0 10 6" fill="none" xmlns="http://www.w3.org/2000/svg">
<path d="M4.98735 4.27956C4.81388 4.06351 4.70879 3.91163 4.58413 3.78028C3.48492 2.62449 2.38345 1.47107 1.27972 0.320005C0.920682 -0.0531509 0.434129 -0.0445682 0.155229 0.334185C-0.0638292 0.63271 -0.0552813 1.03236 0.207945 1.30887C1.62298 2.79677 3.0424 4.28006 4.46622 5.75875C4.7754 6.07967 5.19144 6.08116 5.50098 5.75875C6.93192 4.27409 8.35799 2.78433 9.7792 1.28946C10.0809 0.972282 10.067 0.496508 9.77672 0.207312C9.48642 -0.0818843 9.05435 -0.0710633 8.74019 0.255821C7.55906 1.485 6.38137 2.71778 5.20712 3.95417C5.14051 4.02768 5.09278 4.12246 4.98735 4.27956Z" fill="black"/>
</svg>
