<svg width="25" height="25" viewBox="0 0 25 25" fill="none" xmlns="http://www.w3.org/2000/svg">
<circle cx="12.5" cy="12.5" r="12.5" fill="#AAAFB2"/>
<path fill-rule="evenodd" clip-rule="evenodd" d="M16.3493 10.8094C16.8624 10.0482 17.1384 9.15185 17.1423 8.23379C17.145 7.00236 16.6594 5.82011 15.7919 4.94613C14.9244 4.07214 13.7458 3.57774 12.5144 3.57131C11.5963 3.56837 10.698 3.83767 9.93293 4.34518C9.16788 4.85268 8.57048 5.57558 8.21621 6.42254C7.86195 7.2695 7.76669 8.20248 7.94256 9.10355C8.11843 10.0046 8.55752 10.8333 9.20428 11.4849C9.85103 12.1365 10.6764 12.5817 11.5761 12.7643C12.4759 12.9468 13.4095 12.8586 14.2591 12.5106C15.1087 12.1627 15.8361 11.5707 16.3493 10.8094ZM4.42013 17.5569C6.35144 20.462 9.07329 21.943 12.5751 22.0597C16.1098 21.9324 18.8501 20.4148 20.7669 17.446C20.8278 17.3656 20.864 17.2694 20.8712 17.169C20.8784 17.0686 20.8564 16.9682 20.8076 16.88C19.9666 15.1956 18.6289 14.1186 16.8082 13.6259C16.2582 13.4774 15.7567 13.4813 15.2804 13.8727C15.0231 14.0611 14.7359 14.2055 14.4307 14.2999C12.7545 14.9025 11.1617 14.7318 9.67177 13.7455C9.43024 13.5854 9.18874 13.4735 8.8861 13.5256C6.82966 13.8785 5.32613 14.9806 4.37552 16.8318C4.30947 16.9434 4.27843 17.072 4.28638 17.2012C4.29433 17.3303 4.3409 17.4542 4.42013 17.5569Z" fill="white"/>
</svg>
