<svg width="24" height="24" viewBox="0 0 24 24" fill="none" xmlns="http://www.w3.org/2000/svg">
<path fill-rule="evenodd" clip-rule="evenodd" d="M11.99 2C6.47 2 2 6.48 2 12C2 17.52 6.47 22 11.99 22C17.52 22 22 17.52 22 12C22 6.48 17.52 2 11.99 2ZM7.00003 9.5C7.00003 8.67157 7.6716 8 8.50003 8C9.32846 8 10 8.67157 10 9.5C10 10.3284 9.32846 11 8.50003 11C7.6716 11 7.00003 10.3284 7.00003 9.5ZM15.5 8C14.6716 8 14 8.67157 14 9.5C14 10.3284 14.6716 11 15.5 11C16.3284 11 17 10.3284 17 9.5C17 8.67157 16.3284 8 15.5 8ZM9.74997 15.5H14.25C14.66 15.5 15 15.16 15 14.75C15 14.34 14.66 14 14.25 14H9.74997C9.33997 14 8.99997 14.34 8.99997 14.75C8.99997 15.16 9.33997 15.5 9.74997 15.5ZM4.00003 12C4.00003 16.42 7.58003 20 12 20C16.42 20 20 16.42 20 12C20 7.58 16.42 4 12 4C7.58003 4 4.00003 7.58 4.00003 12Z" fill="#F7A15B"/>
</svg>
