<svg width="25" height="13" viewBox="0 0 25 13" fill="none" xmlns="http://www.w3.org/2000/svg">
<rect x="0.763916" y="0.962158" width="23.5651" height="12.023" rx="6.0115" fill="black" fill-opacity="0.7"/>
<g clip-path="url(#clip0)">
<path d="M9.39341 6.81244C9.12289 6.43608 8.81348 6.10511 8.44218 5.84223C7.67836 5.30322 6.8562 5.14057 5.97569 5.43371C5.2384 5.67958 4.67968 6.19022 4.21998 6.83324C4.14749 6.93537 4.15102 7.02994 4.23589 7.13585C4.40209 7.3401 4.56476 7.55381 4.75041 7.73727C5.33034 8.31221 6.00752 8.64885 6.81023 8.65642C7.08782 8.65831 7.35834 8.61481 7.62355 8.52592C8.37322 8.27817 8.94078 7.76753 9.40932 7.11504C9.48181 7.01291 9.47474 6.92403 9.39341 6.81244ZM6.81023 8.1628C6.20201 8.16091 5.70341 7.62568 5.70341 6.9732C5.70341 6.3226 6.20378 5.78738 6.81377 5.78738C7.42376 5.78738 7.92413 6.32071 7.9259 6.97131C7.92766 7.62379 7.42199 8.16469 6.81023 8.1628Z" fill="white"/>
<path d="M6.82075 6.33643C6.49012 6.33454 6.21606 6.62769 6.21606 6.97946C6.21783 7.33124 6.48481 7.61493 6.81368 7.61493C7.13901 7.61493 7.40952 7.32556 7.41129 6.97757C7.41483 6.6258 7.14962 6.33833 6.82075 6.33643Z" fill="white"/>
</g>
<defs>
<clipPath id="clip0">
<rect width="5.29012" height="3.36644" fill="white" transform="translate(4.1687 5.29077)"/>
</clipPath>
</defs>
</svg>
