<svg width="24" height="24" viewBox="0 0 24 24" fill="none" xmlns="http://www.w3.org/2000/svg">
<path fill-rule="evenodd" clip-rule="evenodd" d="M11.99 2C6.47 2 2 6.48 2 12C2 17.52 6.47 22 11.99 22C17.52 22 22 17.52 22 12C22 6.48 17.52 2 11.99 2ZM11.9999 20C7.57994 20 3.99994 16.42 3.99994 12C3.99994 7.58003 7.57994 4.00003 11.9999 4.00003C16.4199 4.00003 19.9999 7.58003 19.9999 12C19.9999 16.42 16.4199 20 11.9999 20ZM11.47 12.4749C11.3626 12.7321 11.3089 13.0771 11.3089 13.5101H12.4173C12.4238 13.0413 12.5345 12.6849 12.7493 12.4407L13.3499 11.8499C13.8447 11.3356 14.0921 10.8131 14.0921 10.2825C14.0921 9.68684 13.9082 9.22297 13.5403 8.89094C13.1758 8.55891 12.6663 8.3929 12.012 8.3929C11.3772 8.3929 10.8662 8.56054 10.4788 8.89583C10.0947 9.23111 9.89938 9.68684 9.89287 10.263H11.0794C11.0794 9.99283 11.164 9.77961 11.3333 9.62336C11.5058 9.46386 11.7321 9.38411 12.012 9.38411C12.305 9.38411 12.5263 9.46549 12.6761 9.62825C12.8291 9.78775 12.9056 10.0205 12.9056 10.3265C12.9056 10.5576 12.8405 10.7725 12.7103 10.971C12.6256 11.1012 12.4238 11.321 12.1048 11.6302C11.789 11.9362 11.5774 12.2178 11.47 12.4749ZM11.4065 14.5648C11.2861 14.682 11.2259 14.8366 11.2259 15.0286C11.2259 15.2077 11.2828 15.3574 11.3968 15.4779C11.514 15.5983 11.68 15.6585 11.8948 15.6585C12.1097 15.6585 12.2757 15.5983 12.3929 15.4779C12.5101 15.3574 12.5687 15.2077 12.5687 15.0286C12.5687 14.8431 12.5084 14.6901 12.388 14.5697C12.2675 14.446 12.1032 14.3841 11.8948 14.3841C11.6897 14.3841 11.527 14.4443 11.4065 14.5648Z" fill="#2190F6"/>
</svg>
