<svg width="23" height="22" viewBox="0 0 23 22" fill="none" xmlns="http://www.w3.org/2000/svg">
<path fill-rule="evenodd" clip-rule="evenodd" d="M8.42079 9.58574C8.41847 9.69733 8.41615 9.8089 8.41615 9.92028H8.41616C8.42127 9.92028 8.42639 9.92028 8.43214 9.919C8.43214 10.0179 8.43138 10.1167 8.43061 10.2156C8.42895 10.4297 8.42729 10.6437 8.43342 10.8574C8.46541 11.9314 9.26134 12.8994 10.3209 13.0248C11.0528 13.1115 11.8084 13.1263 12.541 13.0492C13.7515 12.9219 14.5532 11.9482 14.5622 10.7269C14.5629 10.6413 14.5638 10.5556 14.5648 10.4699C14.5688 10.0984 14.5727 9.72677 14.5603 9.35595C14.5347 8.58722 14.7663 7.91619 15.2206 7.29658C15.9269 6.3331 16.2008 5.24365 16.0568 4.05135C15.8348 2.21245 14.534 0.684633 12.7541 0.176219C10.9748 -0.331552 9.06108 0.280345 7.91325 1.72396C6.60868 3.36489 6.54789 5.6113 7.77697 7.30623C8.11287 7.77029 8.36304 8.26521 8.41039 8.83854C8.43117 9.0864 8.42598 9.33611 8.42079 9.58574ZM10.7297 8.21764V8.45546C10.445 8.45546 10.1916 8.45546 9.93378 8.45353C9.91259 8.3782 9.89458 8.30173 9.87663 8.22553C9.83715 8.05793 9.79798 7.8916 9.72584 7.74137C9.71014 7.70863 9.69446 7.67585 9.67876 7.64304C9.47437 7.21586 9.26777 6.78408 9.00158 6.39609C7.74242 4.56298 8.68231 2.09482 10.8442 1.60248C12.0407 1.32995 13.2954 1.8268 14.0152 2.85777C14.7209 3.86881 14.7452 5.22372 14.0811 6.25662C14.0311 6.33413 13.9802 6.41121 13.9292 6.48833C13.7548 6.75206 13.5802 7.01618 13.4451 7.29916C13.3263 7.54663 13.2423 7.81076 13.1557 8.08277C13.1172 8.20356 13.0783 8.3259 13.0356 8.44903H12.2627V8.19129C12.2627 7.8446 12.263 7.4979 12.2633 7.15121C12.2639 6.3191 12.2646 5.487 12.2614 4.65489C12.2589 4.05906 11.7105 3.67663 11.1929 3.9093C10.8666 4.05585 10.7272 4.32516 10.7284 4.68124C10.7308 5.53858 10.7304 6.39592 10.73 7.25326C10.7299 7.57472 10.7297 7.89618 10.7297 8.21764ZM9.96313 10.1837C9.96317 10.128 9.96321 10.0718 9.96321 10.0148H13.0055C13.0055 10.1102 13.0087 10.2062 13.0118 10.3024C13.019 10.5225 13.0262 10.7432 12.9959 10.9583C12.9479 11.2964 12.6383 11.5323 12.296 11.5387C11.7617 11.549 11.2268 11.5503 10.6926 11.5381C10.3273 11.5304 10.024 11.2424 9.97153 10.8844C9.963 10.8255 9.96336 10.7647 9.96371 10.7045C9.96378 10.6924 9.96385 10.6804 9.96385 10.6684C9.9629 10.5085 9.96301 10.3485 9.96313 10.1837ZM21.6971 17.3797C21.6221 17.3799 21.5452 17.3801 21.4655 17.3801C21.4655 17.258 21.4655 17.1706 21.4649 17.0838C21.4649 16.8226 21.4651 16.5614 21.4653 16.3001C21.4658 15.6471 21.4663 14.994 21.4636 14.3412C21.4617 13.8604 21.1437 13.5339 20.6715 13.5326C20.327 13.5317 19.9824 13.5294 19.6378 13.5271C18.6648 13.5205 17.6918 13.5139 16.7194 13.5409C14.8345 13.5937 13.2874 14.3772 12.0897 15.8413C11.945 16.0184 11.8158 16.208 11.6839 16.4015C11.6204 16.4947 11.5563 16.5887 11.4895 16.6827C11.4751 16.6608 11.4621 16.6416 11.4502 16.6239C11.4321 16.597 11.4163 16.5737 11.4012 16.5497C10.153 14.5584 8.35382 13.5551 6.0153 13.5326C5.19755 13.5246 4.3795 13.5267 3.56157 13.5288C3.18982 13.5297 2.81809 13.5307 2.44642 13.5307C1.82133 13.5307 1.53405 13.8154 1.53341 14.4357C1.53298 15.0025 1.53313 15.5691 1.53327 16.1358C1.53334 16.4192 1.53341 16.7026 1.53341 16.9861V17.3801C1.45062 17.3801 1.37113 17.38 1.29378 17.3799C1.14518 17.3798 1.00449 17.3797 0.863526 17.3801C0.305609 17.3827 0.00169746 17.6835 0.00105765 18.2394C-0.000313423 18.9153 -5.22123e-05 19.5914 0.000208945 20.2674C0.000313395 20.5378 0.000417837 20.8082 0.000417837 21.0785C0.000417837 21.7148 0.285774 22.0002 0.922388 22.0002H11.2227C14.8639 22.0002 18.5044 22.0002 22.1456 21.9995C22.6869 21.9995 22.9966 21.6916 22.9979 21.153C22.9998 20.1664 23.0011 19.1804 22.9972 18.1938C22.9959 17.7027 22.6747 17.3859 22.1847 17.3807C22.0256 17.3789 21.8662 17.3793 21.6971 17.3797ZM3.3556 17.3801H3.07728C3.07728 16.5959 3.07728 15.8458 3.07792 15.0707H3.63136C3.89809 15.0707 4.16475 15.0702 4.43137 15.0698C5.00256 15.0688 5.57355 15.0678 6.14454 15.0713C8.30647 15.0842 10.1504 16.5805 10.6226 18.7009C10.6289 18.7296 10.6321 18.7588 10.6368 18.802C10.6396 18.8286 10.6431 18.8605 10.6482 18.9008C10.606 18.8683 10.5712 18.8415 10.5405 18.8179C10.5026 18.7889 10.471 18.7646 10.4396 18.7401C9.29242 17.8422 7.99168 17.3884 6.53867 17.3814C5.79608 17.3778 5.05317 17.3786 4.3104 17.3794C3.99209 17.3797 3.67382 17.3801 3.3556 17.3801ZM18.9487 15.0696C19.2712 15.0701 19.5955 15.0707 19.9223 15.0707V17.3801H19.6644C19.3453 17.3801 19.0262 17.3807 18.7071 17.3813C18.0051 17.3827 17.303 17.3841 16.601 17.3788C15.0603 17.3672 13.6854 17.8307 12.4832 18.8031C12.4645 18.8179 12.4449 18.8309 12.4123 18.8525C12.3924 18.8657 12.3677 18.8821 12.3354 18.904C12.3538 18.8275 12.3697 18.7569 12.3846 18.6903C12.4144 18.5578 12.4406 18.4415 12.4755 18.3281C13.066 16.407 14.8313 15.0855 16.8333 15.072C17.5353 15.0671 18.2377 15.0683 18.9487 15.0696ZM6.68646 18.9285C7.9904 18.9497 9.09472 19.4716 10.0429 20.4505H1.55132V18.9349C1.56561 18.9334 1.5801 18.9317 1.59474 18.9299C1.63189 18.9254 1.66998 18.9208 1.70808 18.9208C2.19784 18.9208 2.68772 18.919 3.17764 18.9173C4.34729 18.9131 5.51719 18.909 6.68646 18.9285ZM21.2761 18.9201H21.4604V18.9248C21.4604 19.4468 21.4604 19.9339 21.461 20.4402H12.9797C13.4141 19.9582 13.9119 19.6117 14.4723 19.3533C15.0815 19.0724 15.7225 18.9233 16.3937 18.922C17.6147 18.9191 18.8352 18.9195 20.056 18.9199C20.4627 18.92 20.8694 18.9201 21.2761 18.9201Z" fill="#19CE7A"/>
</svg>
