<svg width="20" height="21" viewBox="0 0 20 21" fill="none" xmlns="http://www.w3.org/2000/svg">
<path d="M10.609 20.9972C8.19542 20.9972 5.78358 20.9988 3.37004 20.9972C1.25054 20.9955 0.00297444 19.7806 0.00127476 17.7135C-0.000424919 13.2366 -0.000424919 8.75975 0.00127476 4.28289C0.00297444 2.24416 1.25224 1.00421 3.30885 1.00086C6.2085 0.997522 8.25831 0.997522 11.158 1.00254C11.8769 1.00421 12.3188 1.35681 12.3596 1.93501C12.4038 2.55999 11.9262 2.99949 11.1648 2.99949C8.35009 3.00451 6.38356 3.00116 3.5689 3.00116C2.30264 3.00116 2.03579 3.26018 2.03579 4.48677C2.03579 8.83829 2.03579 13.1898 2.03579 17.5413C2.03579 18.6994 2.32643 18.9935 3.47882 18.9935C8.2838 18.9935 11.7291 18.9935 16.534 18.9935C17.649 18.9935 17.9499 18.6911 17.9499 17.5764C17.9499 15.1199 17.955 12.6634 17.9465 10.2052C17.9448 9.734 18.0587 9.33962 18.5159 9.11068C19.1753 8.77813 19.964 9.20593 19.9708 9.96461C19.9946 12.7336 20.0252 15.5043 19.9538 18.2716C19.9147 19.804 18.5363 20.9771 16.9318 20.9888C14.372 21.0089 13.1704 20.9955 10.609 20.9972Z" fill="#9286FF"/>
<path d="M9.65383 12.7006C8.19551 12.7006 6.73718 12.7056 5.27886 12.699C4.5327 12.6956 4.07719 12.3146 4.07039 11.7113C4.06359 11.1014 4.514 10.7037 5.25506 10.702C8.19211 10.697 11.1308 10.697 14.0679 10.702C14.7988 10.7037 15.2577 11.1131 15.2458 11.7197C15.2339 12.3213 14.7784 12.6973 14.0288 12.699C12.5688 12.704 11.1105 12.7006 9.65383 12.7006Z" fill="#9286FF"/>
<path d="M7.5853 8.70208C6.78305 8.70208 5.9808 8.71211 5.17855 8.69874C4.50038 8.68704 4.05506 8.26426 4.06866 7.67937C4.08226 7.11454 4.50888 6.71181 5.15986 6.7068C6.80684 6.6951 8.45383 6.69343 10.1008 6.7068C10.7433 6.71181 11.1733 7.12958 11.1784 7.69274C11.1852 8.2559 10.7552 8.6837 10.1195 8.69707C9.27478 8.71545 8.43004 8.70041 7.5853 8.70208Z" fill="#9286FF"/>
<ellipse cx="16.8415" cy="4.15798" rx="3.1579" ry="3.1581" fill="#9286FF"/>
</svg>
