<svg width="18" height="14" viewBox="0 0 18 14" fill="none" xmlns="http://www.w3.org/2000/svg">
<path d="M0.0214977 11.4784C0.0300293 8.64258 0.0499363 4.37756 0.00159264 2.41026C-0.0339565 0.959789 0.675579 -0.0223481 2.28519 0.000386549C5.76603 0.0488871 12.0324 0.0231212 16.0536 0.0185743C16.1545 0.0246368 16.2541 0.0322151 16.3508 0.0413089C17.2892 0.13831 17.9845 0.880975 17.9888 1.88585C18.0044 5.30059 18.003 8.71533 17.9888 12.1301C17.986 12.8803 17.6404 13.4714 16.992 13.7776C16.6778 13.9261 16.3024 13.9883 15.9555 13.9898C11.3314 14.0034 6.70591 13.9989 2.08185 13.9974C1.93682 13.9974 1.79036 13.9883 1.64532 13.9731C0.729612 13.8746 0.0698433 13.135 0.0229206 12.1513C0.0200768 12.077 0.0200768 12.0028 0.0200768 11.9285C0.0200768 11.7936 0.0214977 11.6557 0.0214977 11.5147C0.0214977 11.5026 0.0214977 11.4905 0.0214977 11.4784ZM2.17712 1.3387C2.30083 1.48117 2.38472 1.58423 2.47572 1.68123C4.45076 3.78798 6.4258 5.89472 8.40226 7.99995C8.88571 8.51527 9.12885 8.5183 9.60093 8.01511C11.5945 5.89018 13.588 3.76373 15.5829 1.63728C15.6569 1.55847 15.7265 1.47359 15.846 1.3387C14.6885 1.3387 10.1754 1.3387 2.17712 1.3387ZM16.7745 2.26021C15.3668 3.75615 13.9634 5.24603 12.5471 6.75258C13.9278 8.36522 15.327 9.99757 16.7745 11.6875C16.7745 8.49102 16.7745 5.37334 16.7745 2.26021ZM16.0038 12.6787C14.5392 10.9676 13.1145 9.30492 11.6641 7.61043C11.239 8.06512 10.8309 8.50466 10.4185 8.94117C9.51419 9.89754 8.50037 9.89602 7.59461 8.93814C7.15382 8.47132 6.71587 8.00298 6.25943 7.51646C4.78491 9.23065 3.32603 10.9251 1.81595 12.6787C6.56372 12.6787 11.2461 12.6787 16.0038 12.6787ZM1.22159 11.4814C1.22159 11.5026 1.22159 11.5087 1.22159 11.5041C1.22159 11.5087 1.22159 11.5011 1.22159 11.4814C2.65346 9.82024 4.02134 8.23336 5.36647 6.67225C3.97868 5.1945 2.60796 3.73493 1.22159 2.25869C1.22159 8.14697 1.22159 11.1889 1.22159 11.4814Z" fill="black"/>
</svg>
