<svg width="14" height="15" viewBox="0 0 14 15" fill="none" xmlns="http://www.w3.org/2000/svg">
<path d="M1.39062 12.2518C1.39062 10.993 1.39062 9.75762 1.39463 8.52228C1.39463 8.4441 1.4427 8.35027 1.49878 8.29554C4.33884 5.51994 7.1829 2.74824 10.0029 0C11.3248 1.29007 12.6427 2.57232 13.9686 3.87021C13.9325 3.9054 13.8685 3.97967 13.8004 4.04613C11.0564 6.724 8.31251 9.40188 5.56459 12.0719C5.46845 12.1658 5.31623 12.2635 5.18805 12.2635C3.97031 12.2791 2.75658 12.2713 1.53884 12.2713C1.50279 12.2752 1.46273 12.2635 1.39062 12.2518ZM10.043 1.91556C10.031 1.92338 10.019 1.92729 10.0149 1.93511C7.64756 4.2455 5.27618 6.55199 2.90879 8.86239C2.85672 8.91321 2.79663 8.9914 2.79663 9.05786C2.78862 9.6638 2.79263 10.2697 2.79263 10.907C3.39349 10.907 3.9663 10.9187 4.53512 10.8991C4.68333 10.8952 4.86759 10.821 4.97174 10.7154C7.26301 8.49492 9.54227 6.26661 11.8255 4.03831C11.8936 3.97185 11.9577 3.89758 12.0138 3.83894C11.3489 3.18999 10.7039 2.55669 10.043 1.91556Z" fill="black"/>
<path d="M0 15.0001C0 14.5544 0 14.1283 0 13.6748C4.66266 13.6748 9.32132 13.6748 14 13.6748C14 14.1126 14 14.5466 14 15.0001C9.33333 15.0001 4.67468 15.0001 0 15.0001Z" fill="black"/>
</svg>
