<svg width="14" height="14" viewBox="0 0 14 14" fill="none" xmlns="http://www.w3.org/2000/svg">
<path d="M0 13.061V4.88724C0.0110138 4.86369 0.0206637 4.83951 0.0289006 4.81482C0.150926 4.36658 0.528419 4.05845 0.986549 4.0523C1.47144 4.04542 1.95669 4.04433 2.44122 4.0523C2.65442 4.05648 2.8606 4.13043 3.02904 4.26313C3.19748 4.39583 3.31919 4.58019 3.37603 4.78875C3.3928 4.84813 3.40529 4.9086 3.4217 4.97522C3.44775 4.96218 3.46452 4.95639 3.47879 4.94697C3.96083 4.63451 4.40897 4.28004 4.79895 3.8528C5.29383 3.30969 5.60888 2.69671 5.57927 1.92875C5.56392 1.53048 5.60674 1.1322 5.74411 0.754918C5.87684 0.388139 6.11625 0.134328 6.49838 0.0362071C6.54048 0.025345 6.58187 0.0119484 6.62397 0H7.05213C7.06284 0.00760349 7.07283 0.019551 7.08424 0.0217234C7.64727 0.135052 8.04047 0.478661 8.31806 0.971802C8.58958 1.45408 8.6852 1.9856 8.70518 2.53232C8.73624 3.21552 8.63939 3.8985 8.41974 4.54508C8.4133 4.57375 8.40948 4.60296 8.40833 4.63234H8.56389C9.3335 4.63234 10.1031 4.63016 10.8731 4.63234C11.0463 4.63189 11.2193 4.64399 11.3908 4.66854C12.894 4.89737 13.9102 6.37028 13.6358 7.89098C13.4142 9.11586 13.2251 10.3473 13.0068 11.5729C12.8048 12.7072 12.1551 13.4531 11.07 13.7989C10.9273 13.8445 10.7789 13.8691 10.633 13.9032H8.6299C8.59101 13.8956 8.55247 13.8854 8.51322 13.8811C7.83852 13.8061 7.16024 13.7573 6.49017 13.6523C5.46997 13.4986 4.47779 13.1926 3.54587 12.7442C3.50805 12.7257 3.46916 12.708 3.41813 12.6862C3.41813 12.7699 3.41813 12.8311 3.41813 12.8959C3.41028 13.2855 3.23795 13.5791 2.90898 13.7728C2.81086 13.8308 2.6974 13.8612 2.59107 13.9043H0.827774C0.566954 13.8264 0.326471 13.7105 0.179113 13.4661C0.103828 13.3401 0.0588718 13.196 0 13.061ZM9.39487 13.0338C9.70636 13.0338 10.0178 13.0396 10.3293 13.0338C11.2716 13.0121 11.997 12.3738 12.1565 11.4346C12.3399 10.3538 12.529 9.27409 12.7074 8.19222C12.7581 7.88627 12.8251 7.57236 12.8069 7.26677C12.7427 6.17766 11.8436 5.48321 10.9159 5.50529C10.1688 5.5234 9.42092 5.50891 8.67343 5.50891C8.36658 5.50891 8.05938 5.51108 7.75253 5.50891C7.36647 5.50565 7.16952 5.16277 7.35505 4.82097C7.39073 4.75761 7.42392 4.69426 7.45389 4.62908C7.79713 3.87598 7.90738 3.08376 7.82139 2.26331C7.78571 1.92948 7.70115 1.60651 7.51704 1.31939C7.39038 1.12133 7.2316 0.959849 7.00075 0.894314C6.72423 0.816469 6.57259 0.894317 6.51943 1.17746C6.46613 1.45175 6.43912 1.73064 6.43879 2.01022C6.44522 2.73979 6.22079 3.38609 5.80441 3.96938C5.20498 4.81011 4.41289 5.42093 3.53445 5.93C3.44311 5.98287 3.41599 6.03862 3.41635 6.14108C3.4192 7.92344 3.41849 9.70605 3.41421 11.4889C3.41421 11.6391 3.46487 11.7141 3.58583 11.7807C4.17455 12.1048 4.79895 12.3383 5.44118 12.5211C6.73351 12.889 8.05688 13.0215 9.39487 13.0338ZM2.56431 8.98407C2.56431 7.70861 2.56431 6.4328 2.56431 5.15662C2.56431 4.96363 2.52863 4.92634 2.33846 4.92598C1.92029 4.92598 1.502 4.92598 1.0836 4.92598C0.890927 4.92598 0.854177 4.96219 0.854177 5.15264V12.8079C0.854177 12.9889 0.898777 13.0338 1.07289 13.0342C1.48678 13.0342 1.90067 13.0342 2.31455 13.0342C2.52863 13.0342 2.56431 12.998 2.56431 12.7847V8.98407Z" fill="#828282"/>
</svg>
