<svg width="16" height="13" viewBox="0 0 16 13" fill="none" xmlns="http://www.w3.org/2000/svg">
<path d="M7.23936 10.3228C6.48314 11.2056 5.76672 12.0433 4.94859 13C4.94859 11.4602 4.93532 10.0723 4.96628 8.68035C4.9707 8.52022 5.17413 8.33133 5.32891 8.20404C7.5843 6.4302 9.84411 4.66456 12.1039 2.89482C12.2543 2.77985 12.3914 2.65256 12.4842 2.46368C12.3118 2.5458 12.1393 2.62382 11.9668 2.70594C9.2073 4.09792 6.44776 5.48168 3.70149 6.89008C3.33002 7.07896 3.1089 7.05843 2.80376 6.79975C1.91487 6.06475 0.995025 5.35439 0 4.56601C5.35544 3.03853 10.6048 1.5398 16 0C14.0055 4.24574 12.0641 8.36829 10.0918 12.5648C9.12327 11.8051 8.21669 11.0907 7.23936 10.3228Z" fill="#AAAFB2"/>
</svg>
