<svg width="10" height="6" viewBox="0 0 10 6" fill="none" xmlns="http://www.w3.org/2000/svg">
<path d="M5.01265 1.72044C5.18612 1.93649 5.29121 2.08837 5.41587 2.21972C6.51508 3.37551 7.61655 4.52893 8.72028 5.67999C9.07932 6.05315 9.56587 6.04457 9.84477 5.66581C10.0638 5.36729 10.0553 4.96764 9.79205 4.69113C8.37702 3.20323 6.9576 1.71994 5.53378 0.241246C5.2246 -0.0796686 4.80856 -0.0811611 4.49902 0.241246C3.06808 1.72591 1.642 3.21567 0.220796 4.71054C-0.0809002 5.02772 -0.0670147 5.50349 0.223283 5.79269C0.513579 6.08188 0.945646 6.07106 1.25981 5.74418C2.44094 4.515 3.61863 3.28222 4.79288 2.04583C4.85949 1.97232 4.90722 1.87754 5.01265 1.72044Z" fill="black"/>
</svg>
