<svg width="23" height="20" viewBox="0 0 23 20" fill="none" xmlns="http://www.w3.org/2000/svg">
<circle cx="11.5" cy="5.5" r="5.5" fill="#19CE7A"/>
<path d="M21.4655 15.3801C21.7246 15.3801 21.955 15.3782 22.1847 15.3807C22.6747 15.3859 22.9959 15.7027 22.9972 16.1938C23.0011 17.1804 22.9998 18.1664 22.9979 19.153C22.9966 19.6916 22.6869 19.9995 22.1456 19.9995C18.5044 20.0002 14.8639 20.0002 11.2227 20.0002C7.7895 20.0002 4.35563 20.0002 0.922388 20.0002C0.285774 20.0002 0.000417837 19.7148 0.000417837 19.0785C0.000417837 18.1323 -0.000861789 17.1856 0.00105765 16.2394C0.00169746 15.6835 0.305609 15.3827 0.863526 15.3801C1.07786 15.3794 1.29156 15.3801 1.53341 15.3801C1.53341 15.2368 1.53341 15.1114 1.53341 14.9861C1.53341 14.1357 1.53277 13.286 1.53341 12.4357C1.53405 11.8154 1.82133 11.5307 2.44642 11.5307C3.63584 11.5307 4.82589 11.521 6.0153 11.5326C8.35382 11.5551 10.153 12.5584 11.4012 14.5497C11.4262 14.5895 11.4531 14.6274 11.4895 14.6827C11.6949 14.3935 11.8753 14.1036 12.0897 13.8413C13.2874 12.3772 14.8345 11.5937 16.7194 11.5409C18.0361 11.5043 19.3541 11.5294 20.6715 11.5326C21.1437 11.5339 21.4617 11.8604 21.4636 12.3412C21.4674 13.2552 21.4649 14.1698 21.4649 15.0838C21.4655 15.1706 21.4655 15.258 21.4655 15.3801ZM3.07728 15.3801C3.18285 15.3801 3.26922 15.3801 3.3556 15.3801C4.41641 15.3801 5.47786 15.3762 6.53867 15.3814C7.99168 15.3884 9.29242 15.8422 10.4396 16.7401C10.4966 16.7845 10.5541 16.8282 10.6482 16.9008C10.6348 16.7948 10.6328 16.7472 10.6226 16.7009C10.1504 14.5805 8.30647 13.0842 6.14454 13.0713C5.30703 13.0662 4.46951 13.0707 3.63136 13.0707C3.45029 13.0707 3.26922 13.0707 3.07792 13.0707C3.07728 13.8458 3.07728 14.5959 3.07728 15.3801ZM19.9223 13.0707C18.8749 13.0707 17.8538 13.0649 16.8333 13.072C14.8313 13.0855 13.066 14.407 12.4755 16.3281C12.423 16.4985 12.3904 16.6752 12.3354 16.904C12.4205 16.8462 12.4531 16.8269 12.4832 16.8031C13.6854 15.8307 15.0603 15.3672 16.601 15.3788C17.6221 15.3865 18.6433 15.3801 19.6644 15.3801C19.7489 15.3801 19.8333 15.3801 19.9223 15.3801C19.9223 14.5979 19.9223 13.8471 19.9223 13.0707ZM10.0429 18.4505C9.09472 17.4716 7.9904 16.9497 6.68646 16.9285C5.02743 16.9008 3.36711 16.9208 1.70808 16.9208C1.65497 16.9208 1.60187 16.9298 1.55132 16.9349C1.55132 17.4504 1.55132 17.9498 1.55132 18.4505C4.37418 18.4505 7.17976 18.4505 10.0429 18.4505ZM21.4604 16.9201C21.3842 16.9201 21.3299 16.9201 21.2761 16.9201C19.6484 16.9201 18.0214 16.9182 16.3937 16.922C15.7225 16.9233 15.0815 17.0724 14.4723 17.3533C13.9119 17.6117 13.4141 17.9582 12.9797 18.4402C15.8275 18.4402 18.6433 18.4402 21.461 18.4402C21.4604 17.9324 21.4604 17.444 21.4604 16.9201Z" fill="#19CE7A"/>
<path d="M10.6443 6.13855C10.6711 6.10125 10.6896 6.06466 10.7179 6.03669C11.6721 5.11421 12.6286 4.19317 13.5828 3.26997C13.8281 3.03254 14.112 2.93857 14.4516 3.04115C14.9607 3.19394 15.1688 3.82231 14.8447 4.23047C14.8024 4.28427 14.7541 4.33448 14.7043 4.38254C13.5531 5.49439 12.4012 6.60552 11.25 7.71666C10.8583 8.09397 10.3916 8.09469 9.99997 7.71737C9.424 7.16145 8.8473 6.60624 8.27282 6.0496C7.93839 5.72537 7.90941 5.29354 8.19702 4.9607C8.46605 4.64867 8.96918 4.59989 9.29543 4.85526C9.34448 4.89328 9.39056 4.93488 9.43515 4.97792C9.80451 5.33371 10.1739 5.6895 10.5432 6.04601C10.5685 6.0704 10.5953 6.09407 10.6443 6.13855Z" fill="white"/>
</svg>
