<svg width="292" height="299" viewBox="0 0 292 299" fill="none" xmlns="http://www.w3.org/2000/svg">
<path d="M44.4488 184.97C43.7524 184.97 43.0561 184.941 42.3888 184.912L42.4758 182.878C43.8105 182.936 45.1741 182.936 46.5087 182.878L46.5958 184.912C45.8994 184.97 45.1741 184.97 44.4488 184.97ZM38.1818 184.534C36.7892 184.33 35.3675 184.069 34.0329 183.749L34.5261 181.744C35.8027 182.064 37.1373 182.326 38.472 182.5L38.1818 184.534ZM50.8027 184.534L50.5126 182.5C51.8182 182.326 53.1528 182.064 54.4584 181.744L54.9517 183.749C53.588 184.069 52.1954 184.33 50.8027 184.534ZM29.971 182.558C28.6364 182.093 27.3308 181.57 26.0542 180.989L26.8956 179.129C28.1141 179.681 29.3617 180.175 30.6383 180.64L29.971 182.558ZM59.0136 182.529L58.3463 180.582C59.6228 180.146 60.8704 179.623 62.089 179.071L62.9304 180.931C61.6828 181.541 60.3482 182.064 59.0136 182.529ZM22.2824 179.071C21.0638 178.374 19.8743 177.618 18.7137 176.776L19.9033 175.091C21.0058 175.875 22.1373 176.602 23.2979 177.27L22.2824 179.071ZM66.7022 179.013L65.6867 177.241C66.8472 176.572 67.9787 175.846 69.0813 175.062L70.2708 176.718C69.1103 177.531 67.9207 178.316 66.7022 179.013ZM15.3772 174.161C14.3037 173.231 13.2882 172.272 12.3017 171.255L13.7814 169.831C14.7099 170.79 15.6963 171.72 16.7118 172.621L15.3772 174.161ZM73.5784 174.103L72.2437 172.563C73.2592 171.691 74.2457 170.732 75.1741 169.773L76.6538 171.197C75.6673 172.185 74.6229 173.173 73.5784 174.103ZM9.54546 168.059C8.67505 166.955 7.83366 165.793 7.07931 164.601L8.79111 163.497C9.51644 164.63 10.2998 165.735 11.1412 166.781L9.54546 168.059ZM79.3811 167.972L77.7853 166.693C78.6267 165.647 79.4101 164.543 80.1354 163.41L81.8472 164.514C81.0929 165.705 80.2515 166.868 79.3811 167.972ZM4.96132 160.94C4.32302 159.691 3.71373 158.412 3.19149 157.105L5.07737 156.349C5.5706 157.599 6.15087 158.848 6.76016 160.01L4.96132 160.94ZM83.9652 160.853L82.1374 159.923C82.7466 158.732 83.3269 157.483 83.8201 156.262L85.706 157.018C85.2128 158.296 84.6035 159.604 83.9652 160.853ZM1.79884 153.095C1.39265 151.729 1.0735 150.364 0.783366 148.969L2.7853 148.591C3.04642 149.899 3.36557 151.206 3.74275 152.514L1.79884 153.095ZM87.0987 153.008L85.1258 152.427C85.5029 151.148 85.8221 149.812 86.0832 148.504L88.0851 148.882C87.824 150.277 87.5049 151.671 87.0987 153.008ZM0.203095 144.785C0.0870407 143.39 0 141.967 0 140.572H2.05996C2.05996 141.908 2.11799 143.274 2.26306 144.611L0.203095 144.785ZM88.6944 144.698L86.6635 144.494C86.7795 143.158 86.8666 141.792 86.8666 140.456L88.9265 140.281V140.456C88.8975 141.879 88.8105 143.303 88.6944 144.698ZM2.23404 136.533L0.203095 136.359C0.319149 134.964 0.522244 133.54 0.783366 132.175L2.7853 132.552C2.55319 133.831 2.3501 135.196 2.23404 136.533ZM86.6345 136.272C86.5184 134.935 86.3153 133.598 86.0542 132.291L88.0561 131.913C88.3172 133.279 88.5203 134.702 88.6654 136.097L86.6345 136.272ZM3.71373 128.601L1.74081 128.02C2.147 126.654 2.58221 125.317 3.10445 124.01L5.01934 124.765C4.52611 126.015 4.09091 127.322 3.71373 128.601ZM85.0967 128.339C84.7196 127.061 84.2554 125.753 83.7621 124.533L85.648 123.777C86.1702 125.085 86.6345 126.421 87.0407 127.787L85.0967 128.339ZM6.70213 121.104L4.87428 120.174C5.51257 118.925 6.2089 117.705 6.99227 116.513L8.70407 117.617C7.97873 118.722 7.31141 119.913 6.70213 121.104ZM82.0503 120.872C81.441 119.68 80.7447 118.518 80.0194 117.385L81.7312 116.281C82.4855 117.472 83.2109 118.693 83.8492 119.942L82.0503 120.872ZM11.0542 114.305L9.4294 113.027C10.2998 111.922 11.2282 110.847 12.1857 109.83L13.6654 111.225C12.766 112.242 11.8665 113.259 11.0542 114.305ZM77.6693 114.102C76.8279 113.056 75.9285 112.039 75.029 111.051L76.5087 109.627C77.4662 110.644 78.4236 111.719 79.294 112.823L77.6693 114.102ZM16.5958 108.465L15.2611 106.925C16.3056 105.995 17.4081 105.094 18.5687 104.281L19.7582 105.937C18.6557 106.721 17.6112 107.593 16.5958 108.465ZM72.0987 108.29C71.0832 107.419 70.0097 106.576 68.9072 105.792L70.0967 104.106C71.2573 104.92 72.3598 105.792 73.4333 106.721L72.0987 108.29ZM23.1528 103.758L22.1083 101.985C23.3269 101.288 24.5745 100.62 25.8511 100.038L26.6925 101.898C25.5029 102.45 24.2843 103.089 23.1528 103.758ZM65.5126 103.612C64.3521 102.944 63.1335 102.334 61.9149 101.782L62.7563 99.9222C64.0329 100.503 65.3095 101.143 66.5281 101.84L65.5126 103.612ZM30.4642 100.387L29.7969 98.4404C31.1315 97.9755 32.4952 97.5687 33.8588 97.2491L34.352 99.2249C33.0174 99.5445 31.7118 99.9513 30.4642 100.387ZM58.1722 100.3C56.8956 99.8641 55.59 99.4864 54.2843 99.1668L54.7486 97.1619C56.1122 97.4815 57.4758 97.8883 58.8105 98.3241L58.1722 100.3ZM38.2689 98.4694L37.9787 96.4355C39.3714 96.2321 40.764 96.0868 42.1857 96.0287L42.3018 98.0626C40.9381 98.1207 39.6035 98.266 38.2689 98.4694ZM50.3385 98.4113C49.0039 98.237 47.6693 98.0917 46.3346 98.0336L46.4217 95.9996C47.8433 96.0577 49.236 96.203 50.6286 96.3774L50.3385 98.4113Z" fill="#6FCF97"/>
<path d="M208.634 166C207.341 166 206.076 165.971 204.783 165.913L204.956 162.115C207.427 162.23 209.956 162.23 212.456 162.115L212.628 165.913C211.306 165.971 209.984 166 208.634 166ZM196.996 165.194C194.381 164.82 191.795 164.331 189.295 163.726L190.186 160.014C192.571 160.589 195.042 161.079 197.542 161.424L196.996 165.194ZM220.444 165.165L219.898 161.395C222.341 161.05 224.812 160.561 227.254 159.985L228.145 163.697C225.617 164.302 223.03 164.791 220.444 165.165ZM181.737 161.51C179.266 160.647 176.824 159.669 174.439 158.604L176.019 155.15C178.289 156.186 180.617 157.107 182.973 157.942L181.737 161.51ZM235.703 161.453L234.467 157.856C236.823 157.05 239.151 156.1 241.421 155.064L243.001 158.517C240.616 159.611 238.174 160.589 235.703 161.453ZM167.456 155.007C165.214 153.712 163.002 152.273 160.847 150.776L163.031 147.668C165.071 149.136 167.197 150.488 169.324 151.726L167.456 155.007ZM249.955 154.92L248.059 151.64C250.214 150.402 252.341 149.021 254.352 147.582L256.565 150.69C254.438 152.186 252.197 153.596 249.955 154.92ZM154.669 145.884C152.686 144.157 150.789 142.344 148.979 140.474L151.738 137.855C153.462 139.639 155.272 141.395 157.169 143.035L154.669 145.884ZM262.714 145.798L260.214 142.92C262.111 141.28 263.921 139.524 265.645 137.74L268.404 140.359C266.593 142.258 264.697 144.071 262.714 145.798ZM143.835 134.546C142.197 132.474 140.674 130.344 139.266 128.157L142.456 126.085C143.807 128.157 145.272 130.229 146.824 132.186L143.835 134.546ZM273.519 134.43L270.53 132.071C272.082 130.114 273.519 128.071 274.869 125.97L278.059 128.042C276.68 130.2 275.157 132.358 273.519 134.43ZM135.33 121.365C134.151 119.063 133.031 116.646 132.054 114.228L135.588 112.79C136.536 115.121 137.571 117.394 138.72 119.61L135.33 121.365ZM282.024 121.221L278.662 119.466C279.812 117.25 280.846 114.948 281.766 112.646L285.3 114.056C284.323 116.473 283.202 118.89 282.024 121.221ZM129.468 106.804C128.72 104.271 128.088 101.71 127.6 99.1777L131.335 98.4583C131.795 100.876 132.399 103.35 133.117 105.739L129.468 106.804ZM287.858 106.631L284.208 105.566C284.898 103.178 285.501 100.732 285.961 98.2856L289.697 99.005C289.208 101.566 288.576 104.127 287.858 106.631ZM126.479 91.3789C126.22 88.7889 126.105 86.1414 126.105 83.5226H129.899C129.899 86.0263 130.042 88.5587 130.272 91.0048L126.479 91.3789ZM290.789 91.2063L286.996 90.8609C287.225 88.3861 287.34 85.8536 287.34 83.3787L291.133 83.0334V83.3787C291.162 85.9687 291.047 88.6163 290.789 91.2063ZM130.243 76.0404L126.45 75.6951C126.68 73.1051 127.054 70.4863 127.542 67.9251L131.278 68.6157C130.818 71.0619 130.473 73.5367 130.243 76.0404ZM286.967 75.5224C286.737 73.0187 286.363 70.5439 285.875 68.0977L289.61 67.3783C290.099 69.9395 290.473 72.5295 290.76 75.1483L286.967 75.5224ZM133.031 61.3062L129.381 60.2414C130.1 57.7378 130.962 55.2341 131.939 52.8168L135.473 54.2269C134.525 56.5291 133.72 58.9177 133.031 61.3062ZM284.093 60.8458C283.375 58.4572 282.542 56.0687 281.622 53.7664L285.128 52.3275C286.105 54.7449 286.967 57.2485 287.714 59.7522L284.093 60.8458ZM138.548 47.3778L135.186 45.6511C136.364 43.3201 137.686 41.0467 139.094 38.8308L142.284 40.874C140.962 43.0036 139.697 45.1907 138.548 47.3778ZM278.49 46.9461C277.34 44.7302 276.076 42.5719 274.725 40.4711L277.915 38.3991C279.352 40.5862 280.674 42.8885 281.881 45.1907L278.49 46.9461ZM146.623 34.7731L143.634 32.4134C145.243 30.3701 146.939 28.3845 148.749 26.4564L151.508 29.0751C149.784 30.9169 148.146 32.8162 146.623 34.7731ZM270.329 34.399C268.777 32.4421 267.111 30.5428 265.415 28.7586L268.145 26.111C269.955 27.9816 271.68 29.996 273.317 32.0392L270.329 34.399ZM156.939 23.8951L154.439 21.0174C156.393 19.3195 158.462 17.6792 160.588 16.1252L162.801 19.2044C160.76 20.7008 158.778 22.2836 156.939 23.8951ZM259.984 23.5786C258.116 21.967 256.105 20.413 254.093 18.9742L256.277 15.8662C258.404 17.3914 260.501 19.0029 262.455 20.7008L259.984 23.5786ZM169.094 15.1755L167.168 11.8948C169.41 10.5711 171.766 9.36239 174.122 8.26883L175.703 11.7222C173.462 12.7582 171.22 13.9093 169.094 15.1755ZM247.772 14.9165C245.616 13.679 243.375 12.5279 241.105 11.4919L242.685 8.03861C245.042 9.10339 247.398 10.3121 249.668 11.6358L247.772 14.9165ZM182.657 8.90194L181.393 5.30473C183.835 4.44139 186.393 3.69317 188.921 3.06006L189.841 6.74361C187.427 7.37672 185.013 8.09617 182.657 8.90194ZM234.151 8.72928C231.795 7.9235 229.381 7.23283 226.967 6.65728L227.858 2.94495C230.387 3.54928 232.915 4.26873 235.387 5.13206L234.151 8.72928ZM197.197 5.3335L196.651 1.56362C199.209 1.18951 201.852 0.93051 204.467 0.815399L204.668 4.61406C202.14 4.72917 199.64 4.98817 197.197 5.3335ZM219.582 5.27595C217.14 4.93062 214.611 4.70039 212.111 4.58528L212.312 0.786621C214.927 0.901732 217.571 1.13195 220.128 1.50606L219.582 5.27595Z" fill="#A6FFBF"/>
<path d="M237.015 250.897V88.5388C237.015 88.2186 236.882 87.9252 236.645 87.7118L190.087 45.0281C189.849 44.8147 189.532 44.6813 189.189 44.6813H69.2537C68.5403 44.6813 67.959 45.2148 67.959 45.8551V251.244C67.959 252.257 69.2801 252.818 70.0993 252.124L81.5141 242.787C82.0425 242.36 82.7824 242.387 83.2844 242.84L94.3822 253.031C94.9106 253.511 95.7562 253.484 96.2582 253.004L106.933 242.413C107.409 241.933 108.149 241.88 108.677 242.28L123.368 253.218C123.87 253.591 124.663 253.538 125.112 253.111L136.818 241.96C137.32 241.506 138.113 241.48 138.641 241.907L151.588 253.138C152.09 253.565 152.83 253.591 153.359 253.164L166.359 242.307C166.861 241.88 167.574 241.88 168.076 242.28L181.843 253.218C182.345 253.618 183.085 253.618 183.56 253.191L196.719 241.96C197.248 241.506 198.093 241.56 198.569 242.067L208.636 252.898C209.165 253.458 210.036 253.485 210.591 252.924L222.112 241.16C222.64 240.626 223.486 240.626 224.014 241.133L234.769 251.724C235.561 252.497 237.015 251.964 237.015 250.897Z" fill="url(#paint0_linear_154_450)"/>
<path d="M190.908 45.5856V84.9399C190.908 86.614 192.243 87.9692 193.891 87.9692L237.014 88.0755L190.908 45.5856Z" fill="#0BB54F"/>
<g filter="url(#filter0_d_154_450)">
<path d="M118.05 152.331V147.076H103.868C102.078 147.076 100.732 146.671 99.8278 145.861C98.9426 145.051 98.5 143.949 98.5 142.556C98.5 142.198 98.5659 141.84 98.6978 141.482C98.8296 141.105 99.0274 140.719 99.291 140.324C99.5547 139.91 99.8278 139.514 100.11 139.137C100.393 138.761 100.741 138.299 101.156 137.753L116.129 117.723C117.108 116.404 117.909 115.453 118.53 114.869C119.171 114.267 119.933 113.965 120.818 113.965C123.681 113.965 125.113 115.604 125.113 118.881V140.748H126.327C127.778 140.748 128.936 140.945 129.802 141.341C130.688 141.736 131.13 142.603 131.13 143.94C131.13 145.032 130.772 145.833 130.057 146.341C129.341 146.831 128.267 147.076 126.836 147.076H125.113V152.331C125.113 153.781 124.793 154.864 124.152 155.58C123.512 156.276 122.655 156.625 121.581 156.625C120.527 156.625 119.67 156.267 119.01 155.551C118.37 154.817 118.05 153.743 118.05 152.331ZM105.902 140.748H118.05V124.334L105.902 140.748Z" fill="white"/>
<path d="M163.845 135.606C163.845 138.695 163.657 141.35 163.28 143.573C162.903 145.795 162.207 147.81 161.19 149.619C159.909 151.841 158.251 153.555 156.217 154.76C154.183 155.966 151.923 156.568 149.437 156.568C146.574 156.568 144.003 155.758 141.724 154.139C139.464 152.519 137.76 150.278 136.611 147.415C136.027 145.852 135.594 144.128 135.311 142.245C135.048 140.343 134.916 138.29 134.916 136.086C134.916 133.242 135.067 130.681 135.368 128.402C135.669 126.123 136.14 124.164 136.78 122.526C137.892 119.813 139.502 117.751 141.611 116.339C143.74 114.907 146.273 114.191 149.211 114.191C151.151 114.191 152.912 114.512 154.494 115.152C156.076 115.774 157.46 116.696 158.647 117.921C159.852 119.126 160.869 120.623 161.698 122.413C163.129 125.52 163.845 129.918 163.845 135.606ZM156.104 135.041C156.104 131.594 155.897 128.779 155.483 126.594C155.068 124.39 154.372 122.733 153.392 121.622C152.413 120.491 151.057 119.926 149.324 119.926C146.838 119.926 145.105 121.179 144.126 123.684C143.165 126.189 142.685 130.05 142.685 135.267C142.685 138.808 142.892 141.708 143.307 143.968C143.721 146.228 144.418 147.942 145.397 149.11C146.376 150.259 147.704 150.833 149.381 150.833C151.113 150.833 152.469 150.231 153.449 149.025C154.428 147.82 155.116 146.097 155.511 143.855C155.907 141.614 156.104 138.676 156.104 135.041Z" fill="white"/>
<path d="M186.87 152.331V147.076H172.688C170.899 147.076 169.552 146.671 168.648 145.861C167.763 145.051 167.32 143.949 167.32 142.556C167.32 142.198 167.386 141.84 167.518 141.482C167.65 141.105 167.847 140.719 168.111 140.324C168.375 139.91 168.648 139.514 168.93 139.137C169.213 138.761 169.561 138.299 169.976 137.753L184.949 117.723C185.928 116.404 186.729 115.453 187.35 114.869C187.991 114.267 188.753 113.965 189.639 113.965C192.501 113.965 193.933 115.604 193.933 118.881V140.748H195.148C196.598 140.748 197.756 140.945 198.622 141.341C199.508 141.736 199.95 142.603 199.95 143.94C199.95 145.032 199.592 145.833 198.877 146.341C198.161 146.831 197.087 147.076 195.656 147.076H193.933V152.331C193.933 153.781 193.613 154.864 192.972 155.58C192.332 156.276 191.475 156.625 190.401 156.625C189.347 156.625 188.49 156.267 187.83 155.551C187.19 154.817 186.87 153.743 186.87 152.331ZM174.722 140.748H186.87V124.334L174.722 140.748Z" fill="white"/>
</g>
<circle cx="71.576" cy="242.666" r="28.0253" fill="#C7FCDD"/>
<path d="M101.413 262.683C103.154 264.078 104.863 265.223 106.301 266.642C112.562 272.805 118.74 279.045 124.957 285.251C126.983 287.276 128.07 289.648 127.454 292.534C126.834 295.435 125.053 297.427 122.219 298.331C119.289 299.265 116.695 298.461 114.544 296.368C111.205 293.121 107.942 289.802 104.651 286.511C101.494 283.355 98.2896 280.243 95.2052 277.019C93.9397 275.696 92.9244 274.133 91.6637 272.511C80.7936 279.353 69.0094 280.7 56.7824 275.446C49.2663 272.218 43.6172 266.796 39.6955 259.594C31.881 245.253 34.9847 227.136 47.202 215.878C59.2124 204.808 77.5264 203.346 91.4231 212.544C99.7765 218.072 104.954 225.89 106.835 235.747C108.712 245.576 106.667 254.678 101.413 262.683ZM44.5988 242.612C44.6421 257.454 56.5611 269.404 71.4153 269.51C86.1252 269.611 98.3714 257.41 98.4291 242.593C98.4869 227.799 86.3417 215.686 71.4682 215.691C56.5563 215.691 44.5555 227.718 44.5988 242.612Z" fill="url(#paint1_linear_154_450)"/>
<defs>
<filter id="filter0_d_154_450" x="88.5" y="107.965" width="121.451" height="62.6594" filterUnits="userSpaceOnUse" color-interpolation-filters="sRGB">
<feFlood flood-opacity="0" result="BackgroundImageFix"/>
<feColorMatrix in="SourceAlpha" type="matrix" values="0 0 0 0 0 0 0 0 0 0 0 0 0 0 0 0 0 0 127 0" result="hardAlpha"/>
<feOffset dy="4"/>
<feGaussianBlur stdDeviation="5"/>
<feComposite in2="hardAlpha" operator="out"/>
<feColorMatrix type="matrix" values="0 0 0 0 0 0 0 0 0 0.466667 0 0 0 0 0.186667 0 0 0 0.25 0"/>
<feBlend mode="normal" in2="BackgroundImageFix" result="effect1_dropShadow_154_450"/>
<feBlend mode="normal" in="SourceGraphic" in2="effect1_dropShadow_154_450" result="shape"/>
</filter>
<linearGradient id="paint0_linear_154_450" x1="152.487" y1="44.6813" x2="152.487" y2="253.515" gradientUnits="userSpaceOnUse">
<stop stop-color="#2ECE76"/>
<stop offset="1" stop-color="#D0FFE3"/>
</linearGradient>
<linearGradient id="paint1_linear_154_450" x1="81.5201" y1="206.505" x2="138" y2="299" gradientUnits="userSpaceOnUse">
<stop stop-color="#2ECE76"/>
<stop offset="1" stop-color="#8BFFCE"/>
</linearGradient>
</defs>
</svg>
