<svg width="13" height="15" viewBox="0 0 13 15" fill="none" xmlns="http://www.w3.org/2000/svg">
<path d="M12.3025 3.22051C11.3311 2.36769 10.3404 1.48623 9.35933 0.598399C8.91193 0.19108 8.37826 -0.00621522 7.74551 0.00014914C6.41292 0.00969568 5.08352 0.0065135 3.75412 0.0065135H2.15628C0.769358 0.0065135 0.00239676 0.73205 0.00239676 2.04629C0.00239676 3.51009 0.00239676 4.9739 0.00239676 6.43452V7.98424V9.81717C-0.000798918 11.2364 -0.000798918 11.6557 0.00239676 13.0749C0.00559243 14.2428 0.810902 15.0001 2.04763 15.0001C3.53042 15.0001 5.01002 15.0001 6.49281 15.0001C7.9756 15.0001 9.4584 15.0001 10.9412 15.0001C12.1843 15.0001 12.9896 14.246 12.9928 13.0813C12.996 11.2102 12.996 10.3391 12.996 8.46793C12.996 7.22052 12.996 5.9731 12.996 4.72569C12.9992 4.12425 12.7723 3.63102 12.3025 3.22051ZM1.22634 1.96674C1.22634 1.40031 1.4756 1.16801 2.08278 1.16801H5.88883H7.65603V2.3486V3.46236C7.65603 3.47827 7.65603 3.49418 7.65923 3.52919L7.66882 4.28018C7.67201 4.5984 7.94684 4.85934 8.28558 4.85934H11.7657V4.8657C11.7721 4.93889 11.7753 5.0089 11.7753 5.07891C11.7753 8.05106 11.7753 10.0232 11.7753 12.9986C11.7753 13.6159 11.5452 13.8355 10.8933 13.8355H2.09876C1.46282 13.8355 1.22314 13.6159 1.22314 13.0208C1.22314 9.00492 1.22314 5.98583 1.22634 1.96674Z" fill="#5624D0"/>
<path d="M3.6512 7.507H9.30754C9.68783 7.507 9.99781 7.22061 9.99781 6.87057C9.99781 6.52053 9.68783 6.23413 9.30754 6.23413H3.6512C3.27092 6.23413 2.96094 6.52053 2.96094 6.87057C2.96094 7.22061 3.27092 7.507 3.6512 7.507Z" fill="#5624D0"/>
<path d="M3.6888 10.2731H6.92602C7.3063 10.2731 7.61628 9.98672 7.61628 9.63668C7.61628 9.28664 7.3063 9.00024 6.92602 9.00024H3.6888C3.30852 9.00024 2.99854 9.28664 2.99854 9.63668C2.99854 9.98672 3.30852 10.2731 3.6888 10.2731Z" fill="#5624D0"/>
</svg>
